<?xml version="1.0" standalone="no"?>
<!DOCTYPE svg PUBLIC "-//W3C//DTD SVG 20010904//EN"
 "http://www.w3.org/TR/2001/REC-SVG-20010904/DTD/svg10.dtd">
<svg version="1.0" xmlns="http://www.w3.org/2000/svg"
 width="800.000000pt" height="800.000000pt" viewBox="0 0 800.000000 800.000000"
 preserveAspectRatio="xMidYMid meet">
<metadata>
Created by potrace 1.14, written by Peter Selinger 2001-2017
</metadata>
<g transform="translate(0.000000,800.000000) scale(0.100000,-0.100000)"
fill="#000000" stroke="none">
<path d="M3729 6199 c-1 -30 -1 -65 -1 -79 -2 -142 38 -351 88 -457 42 -90
146 -201 227 -243 26 -14 47 -28 47 -32 0 -19 -136 -20 -233 -2 -117 22 -330
135 -677 363 -67 43 -68 44 -198 121 -194 115 -375 189 -537 217 -57 10 -225
10 -272 1 -27 -5 -58 -11 -71 -14 -101 -20 -285 -119 -389 -209 -34 -30 -183
-180 -183 -185 0 -3 53 -6 118 -6 233 -1 374 -28 512 -100 154 -81 222 -196
216 -364 -1 -44 -6 -83 -9 -87 -4 -3 -20 5 -35 19 -52 49 -170 117 -247 143
-128 43 -238 46 -420 10 -16 -3 -129 -39 -250 -80 -240 -80 -309 -97 -400
-100 -187 -4 -370 99 -481 271 -65 102 -93 189 -101 318 -6 106 -10 107 -43 9
-10 -32 -26 -77 -34 -100 -37 -101 -67 -294 -67 -422 1 -277 83 -485 261 -661
116 -115 243 -192 420 -255 65 -23 226 -62 290 -70 30 -4 63 -9 73 -11 10 -1
68 -10 130 -19 62 -8 123 -17 137 -20 14 -3 40 -7 59 -10 18 -2 41 -7 50 -9 9
-3 32 -7 51 -10 58 -9 93 -16 135 -28 22 -5 50 -12 63 -14 60 -11 196 -60 281
-101 173 -85 251 -192 238 -327 -15 -160 -177 -311 -357 -333 -25 -3 -47 -6
-50 -6 -3 -1 -27 3 -55 7 -79 13 -142 51 -181 111 -14 22 -43 38 -30 17 3 -5
8 -24 11 -43 68 -404 580 -744 1131 -751 l65 -1 -29 -31 c-164 -177 -232 -393
-192 -606 12 -65 15 -68 37 -43 29 32 123 99 193 136 70 38 172 72 248 84 83
12 316 4 342 -12 3 -2 25 -6 49 -10 24 -3 53 -10 65 -14 11 -5 23 -9 26 -9 27
-1 231 -67 420 -137 85 -32 191 -71 235 -87 312 -116 647 -209 845 -234 19 -2
46 -7 60 -9 26 -5 66 -10 160 -21 85 -10 568 -13 635 -4 33 5 87 11 120 14
106 11 137 16 276 41 75 14 140 25 143 25 3 0 6 3 6 8 0 4 -66 6 -147 5 -256
-3 -477 53 -744 187 -642 322 -1144 990 -1313 1745 -14 61 -27 128 -30 150 -3
22 -9 63 -13 90 -10 64 -10 431 0 510 94 760 622 1256 1321 1240 104 -3 270
-22 332 -40 11 -3 -9 8 -43 25 -91 44 -270 95 -413 119 -181 29 -207 32 -348
32 -187 1 -301 -12 -472 -53 -66 -16 -105 -19 -175 -15 -105 6 -105 7 -210 42
-114 38 -234 99 -350 177 -137 91 -227 171 -286 252 l-29 39 -1 -54z"/>
<path d="M5550 5533 c-488 -57 -862 -415 -980 -938 -51 -222 -58 -504 -20
-740 24 -149 73 -340 110 -430 4 -11 25 -63 45 -115 46 -116 149 -315 223
-430 143 -222 369 -471 547 -603 50 -37 95 -70 100 -74 16 -13 68 -47 90 -59
11 -6 38 -21 60 -34 370 -212 738 -274 1100 -184 33 8 69 19 80 24 11 5 51 23
88 39 185 82 348 235 469 441 40 66 53 92 89 175 40 93 77 227 96 350 2 17 7
41 10 55 10 46 12 394 2 460 -5 36 -11 81 -14 100 -2 19 -7 46 -10 60 -3 14
-10 51 -15 82 -15 81 -71 266 -114 378 -168 434 -494 861 -851 1117 -233 166
-491 277 -739 317 -84 13 -288 18 -366 9z m502 -278 c92 -16 92 -17 99 -76 8
-68 20 -98 50 -125 25 -23 127 -64 158 -64 37 0 55 44 41 103 -4 20 -5 38 -3
41 12 12 175 -85 293 -175 158 -119 362 -344 467 -514 56 -91 120 -207 153
-279 36 -78 108 -280 124 -347 6 -26 5 -27 -27 -19 -39 8 -77 -3 -78 -25 -1
-8 -2 -21 -3 -27 -4 -28 24 -148 39 -172 18 -27 34 -35 80 -43 17 -2 34 -8 38
-13 10 -9 11 -248 2 -320 -51 -423 -253 -742 -559 -880 -50 -23 -167 -60 -189
-60 -2 0 -7 32 -11 71 -7 79 -28 132 -60 154 -24 18 -147 20 -178 4 -36 -19
-49 -71 -42 -165 l7 -85 -24 5 c-13 3 -53 10 -87 16 -89 16 -227 62 -335 113
-392 186 -735 556 -932 1007 -40 91 -100 263 -110 313 -3 10 -6 26 -9 35 -3 9
-8 31 -10 47 -3 17 -10 54 -16 84 -5 29 -10 57 -10 61 0 4 19 4 43 0 91 -17
122 -18 153 -5 46 19 54 42 54 147 -1 146 -36 193 -162 217 -106 20 -101 17
-93 69 13 91 16 108 40 200 99 373 369 635 730 707 61 12 297 12 367 0z"/>
<path d="M5823 4612 c-12 -2 -26 -9 -32 -16 -18 -21 -20 -79 -3 -111 13 -26
95 -140 112 -155 3 -3 48 -61 100 -130 51 -69 97 -127 100 -130 3 -3 17 -21
30 -40 14 -19 33 -45 43 -56 12 -14 20 -42 23 -79 12 -177 186 -342 322 -306
83 23 130 108 119 219 l-6 59 175 238 c96 130 177 249 180 264 11 55 -50 141
-100 141 -15 0 -90 -67 -231 -205 l-210 -205 -45 6 c-49 6 -58 14 -215 189
-118 132 -276 305 -278 305 -1 0 -16 4 -32 8 -17 4 -40 6 -52 4z m612 -674
c31 -14 61 -61 68 -107 5 -26 0 -38 -18 -57 -30 -30 -48 -30 -87 -3 -55 39
-75 122 -38 159 23 23 39 25 75 8z"/>
</g>
</svg>
